# xmcd
#
# Track frame offsets:
#	151
#	21449
#	38341
#	51908
#	64847
#	78912
#	93298
#	107566
#	122013
#	135551
#	150412
#	169209
#	184324
#	197957
#	209630
#	225914
#	240764
#	255643
#	268067
#	286991
#	300463
#	314426
#
# Disc length: 4433 seconds
#
# Revision: 1
# Processed by: cddbd v1.5.1PL0 Copyright (c) Steve Scherf et al.
# Submitted via: audiograbber 1.83.01
#
DISCID=27114f16
DTITLE=Buffalo C. WAYNE - Dedicated to you The Best Of
DYEAR=1999
DGENRE=Country
TTITLE0=Rock'N'Roll Rodeo
TTITLE1=The European Texan
TTITLE2=Lone Star Shine
TTITLE3=Old Time Plantation
TTITLE4=My Friend In Houston
TTITLE5=Free Me
TTITLE6=Deep Blue Eyes
TTITLE7=Sawdust Creepin' Cowboy
TTITLE8=Wild Horses
TTITLE9=Concrete And Steel
TTITLE10=Fly Away
TTITLE11=Starmaker
TTITLE12=Black And White Pony
TTITLE13=Cobblestone Cowboy
TTITLE14=Music In My Feet
TTITLE15=A Texan Night Out
TTITLE16=I'm Gonna Leave Town Tonight
TTITLE17=Country Music City USA
TTITLE18=No More Steppin' Stones
TTITLE19=Get On Board
TTITLE20=Life's Busted
TTITLE21=Dedicated To You
EXTD=
EXTT0=
EXTT1=
EXTT2=
EXTT3=
EXTT4=
EXTT5=
EXTT6=
EXTT7=
EXTT8=
EXTT9=
EXTT10=
EXTT11=
EXTT12=
EXTT13=
EXTT14=
EXTT15=
EXTT16=
EXTT17=
EXTT18=
EXTT19=
EXTT20=
EXTT21=
PLAYORDER=
